<svg width="89" height="89" viewBox="0 0 89 89" fill="none" xmlns="http://www.w3.org/2000/svg">
    <path
        d="M11.125 11.125V10.125H10.125V11.125H11.125ZM47.5012 48.9154C47.8918 49.306 48.5249 49.306 48.9154 48.9154C49.306 48.5249 49.306 47.8918 48.9154 47.5012L47.5012 48.9154ZM12.125 40.7917V11.125H10.125V40.7917H12.125ZM11.125 12.125H40.7917V10.125H11.125V12.125ZM10.4179 11.8321L47.5012 48.9154L48.9154 47.5012L11.8321 10.4179L10.4179 11.8321Z"
        fill="white" />
    <path
        d="M11.125 11.125V10.125H10.125V11.125H11.125ZM47.5012 48.9154C47.8918 49.306 48.5249 49.306 48.9154 48.9154C49.306 48.5249 49.306 47.8918 48.9154 47.5012L47.5012 48.9154ZM12.125 40.7917V11.125H10.125V40.7917H12.125ZM11.125 12.125H40.7917V10.125H11.125V12.125ZM10.4179 11.8321L47.5012 48.9154L48.9154 47.5012L11.8321 10.4179L10.4179 11.8321Z"
        fill="white" />
    <path
        d="M14.833 55.6252V68.1668C14.833 70.9953 14.833 72.4095 15.7117 73.2881C16.5904 74.1668 18.0046 74.1668 20.833 74.1668H68.1663C70.9948 74.1668 72.409 74.1668 73.2877 73.2881C74.1663 72.4095 74.1663 70.9953 74.1663 68.1668V20.8335C74.1663 18.0051 74.1663 16.5909 73.2877 15.7122C72.409 14.8335 70.9948 14.8335 68.1663 14.8335H55.6247"
        stroke="white" stroke-width="2" stroke-linecap="round" />
    <path
        d="M14.833 55.6252V68.1668C14.833 70.9953 14.833 72.4095 15.7117 73.2881C16.5904 74.1668 18.0046 74.1668 20.833 74.1668H68.1663C70.9948 74.1668 72.409 74.1668 73.2877 73.2881C74.1663 72.4095 74.1663 70.9953 74.1663 68.1668V20.8335C74.1663 18.0051 74.1663 16.5909 73.2877 15.7122C72.409 14.8335 70.9948 14.8335 68.1663 14.8335H55.6247"
        stroke="white" stroke-width="2" stroke-linecap="round" />
</svg>