<svg width="18" height="18" viewBox="0 0 18 18" fill="none" xmlns="http://www.w3.org/2000/svg">
<path d="M1.43667 3.46502L3.63462 1.26914C3.78967 1.11341 3.97395 0.989853 4.17689 0.90556C4.37983 0.821267 4.59743 0.777901 4.81718 0.777954C5.26503 0.777954 5.68604 0.953377 6.0018 1.26914L8.36692 3.63426C8.52265 3.7893 8.64621 3.97359 8.7305 4.17653C8.81479 4.37947 8.85816 4.59706 8.8581 4.81681C8.8581 5.26466 8.68268 5.68568 8.36692 6.00144L6.63745 7.7309C7.04228 8.62321 7.60512 9.43496 8.29881 10.127C8.99076 10.8224 9.80244 11.3872 10.6949 11.7945L12.4244 10.0651C12.5794 9.90934 12.7637 9.78578 12.9666 9.70148C13.1696 9.61719 13.3872 9.57383 13.6069 9.57388C14.0548 9.57388 14.4758 9.7493 14.7915 10.0651L17.1587 12.4281C17.3146 12.5834 17.4383 12.7681 17.5226 12.9714C17.6069 13.1747 17.6502 13.3927 17.6499 13.6127C17.6499 14.0606 17.4745 14.4816 17.1587 14.7974L14.9649 16.9912C14.4613 17.4968 13.7658 17.7837 13.0518 17.7837C12.9011 17.7837 12.7566 17.7713 12.6142 17.7465C9.83222 17.2884 7.07292 15.8086 4.84607 13.5838C2.62129 11.3611 1.14361 8.60389 0.679256 5.81363C0.538918 4.96128 0.821659 4.08416 1.43667 3.46502Z" fill="#192031"/>
</svg>
