<svg width="19" height="13" viewBox="0 0 19 13" fill="none" xmlns="http://www.w3.org/2000/svg">
<path d="M2.66915 0.282104H16.67C17.9908 0.282104 18.6565 0.905538 18.6565 2.17354V11.0707C18.6565 12.3281 17.9908 12.9621 16.67 12.9621H2.66915C1.34832 12.9621 0.682617 12.3281 0.682617 11.0707V2.17354C0.682617 0.905538 1.34832 0.282104 2.66915 0.282104ZM9.66428 9.36944L16.7862 3.52607C17.0398 3.31474 17.2406 2.82867 16.9236 2.39544C16.6172 1.9622 16.0571 1.95164 15.6873 2.2158L9.66428 6.29454L3.65185 2.2158C3.28202 1.95164 2.72198 1.9622 2.41555 2.39544C2.09855 2.82867 2.29932 3.31474 2.55292 3.52607L9.66428 9.36944Z" fill="#192031"/>
</svg>
