<svg width="30" height="31" viewBox="0 0 30 31" fill="none" xmlns="http://www.w3.org/2000/svg">
<rect y="0.416626" width="29.9389" height="29.9389" rx="14.9694" fill="white"/>
<g clip-path="url(#clip0_568_167)">
<path d="M11.1236 21.55V12.6384H8.10302V21.55H11.1236ZM9.61369 11.4209C10.667 11.4209 11.3227 10.7366 11.3227 9.88144C11.303 9.00699 10.6671 8.34167 9.63368 8.34167C8.60047 8.34167 7.9248 9.007 7.9248 9.88144C7.9248 10.7366 8.58029 11.4209 9.59397 11.4209H9.6136H9.61369ZM12.7955 21.55H15.816V16.5733C15.816 16.307 15.8357 16.0409 15.9154 15.8505C16.1338 15.3184 16.6308 14.7672 17.4652 14.7672C18.5582 14.7672 18.9955 15.5844 18.9955 16.7824V21.55H22.0159V16.4401C22.0159 13.7028 20.5257 12.4292 18.5383 12.4292C16.9089 12.4292 16.1934 13.3223 15.7959 13.9307H15.8161V12.6382H12.7955C12.8352 13.4744 12.7955 21.5498 12.7955 21.5498L12.7955 21.55Z" fill="#192031"/>
</g>
<defs>
<clipPath id="clip0_568_167">
<rect width="14.0889" height="13.2083" fill="white" transform="translate(7.9248 8.3418)"/>
</clipPath>
</defs>
</svg>
