<svg width="14" height="17" viewBox="0 0 14 17" fill="none" xmlns="http://www.w3.org/2000/svg">
<path d="M6.38546 16.3511C4.70965 14.2533 0.982422 9.16874 0.982422 6.31278C0.982422 2.84772 3.74205 0.0388184 7.14631 0.0388184C10.5493 0.0388184 13.3102 2.84772 13.3102 6.31278C13.3102 9.16874 9.55408 14.2533 7.90717 16.3511C7.51229 16.8511 6.78033 16.8511 6.38546 16.3511ZM7.14631 8.4041C8.27957 8.4041 9.20094 7.46627 9.20094 6.31278C9.20094 5.15928 8.27957 4.22146 7.14631 4.22146C6.01305 4.22146 5.09168 5.15928 5.09168 6.31278C5.09168 7.46627 6.01305 8.4041 7.14631 8.4041Z" fill="#192031"/>
</svg>
